<svg version="1.1" xmlns="http://www.w3.org/2000/svg" xmlns:xlink="http://www.w3.org/1999/xlink" width="55.29178" height="60.22845" viewBox="0,0,55.29178,60.22845"><g transform="translate(-212.35411,-149.88577)"><g data-paper-data="{&quot;isPaintingLayer&quot;:true}" fill="#939393" fill-rule="nonzero" stroke="none" stroke-width="1" stroke-linecap="butt" stroke-linejoin="miter" stroke-miterlimit="10" stroke-dasharray="" stroke-dashoffset="0" style="mix-blend-mode: normal"><path d="M212.47533,171.92802c0,0 0.77146,-7.65431 6.07329,-8.13052c4.21289,-0.36509 7.31461,4.24464 7.63526,6.87967c0.19684,1.71119 1.08894,9.54011 -5.46056,10.94652c-6.53363,1.40641 -8.96548,-6.15583 -8.24799,-9.69567zM230.30153,192.90991h3.67318v8.38133h-3.42872c0,0 -2.38741,-0.12382 -3.1176,-2.87315c-0.37145,-1.22545 0.05715,-2.63186 0.24763,-3.18109c0.18096,-0.55241 0.97465,-1.83818 2.62552,-2.32709zM226.33627,159.18777c0,-5.14309 2.93029,-9.302 6.53998,-9.302c3.61921,0 6.53998,4.15892 6.53998,9.302c0,5.14626 -2.92077,9.31153 -6.53998,9.31153c-3.60969,0 -6.53998,-4.16526 -6.53998,-9.31153zM243.00369,159.737c0.39049,-3.57794 4.67323,-9.07342 8.10195,-8.28609c3.42237,0.78099 6.54315,5.31452 5.91138,9.21946c-0.61908,3.91129 -3.72715,9.07025 -8.55911,8.44165c-4.82879,-0.61908 -5.9209,-4.99387 -5.45421,-9.37502zM248.45472,180.05855c4.36845,6.25425 11.84815,12.04181 11.84815,12.04181c0,0 5.60342,4.3748 2.02231,12.81962c-3.58111,8.43847 -16.67694,4.05732 -16.67694,4.05732c0,0 -4.82561,-1.55245 -10.43221,-0.31113c-5.60342,1.2572 -10.43221,0.78099 -10.43221,0.78099c0,0 -6.55585,0.15556 -8.41942,-8.12735c-1.86675,-8.28926 6.53998,-12.82597 7.16858,-13.60061c0.61908,-0.78734 4.98435,-3.74938 7.7813,-8.43847c2.816,-4.69227 11.22272,-8.44482 17.14362,0.77781zM229.3872,204.66282h8.50832v-20.56918l-3.85732,-0.0635v5.57168h-4.53354c0,0 -4.53036,0.36827 -6.11773,5.50818c-0.55241,3.4319 0.49209,5.44786 0.67305,5.8828c0.18413,0.42859 1.64769,2.93664 5.32405,3.67zM253.75337,204.6025v-14.50858h-4.22876v10.8989h-4.0351c0,0 -1.28895,-0.18731 -1.5334,-1.22863v-9.73377l-3.97161,0.0635v10.83223c0,0 0.17461,2.69853 3.97161,3.67636zM261.2299,185.68737c-7.17175,0.15874 -7.47335,-4.84784 -7.47335,-8.4353c0,-3.7589 0.77146,-9.0766 6.54632,-9.0766c5.76216,0 7.31779,5.632 7.31779,7.5051c0,1.87945 0.78416,9.84806 -6.39076,10.0068z"/></g></g></svg>