<svg version="1.1" xmlns="http://www.w3.org/2000/svg" xmlns:xlink="http://www.w3.org/1999/xlink" width="19.7675" height="22.9466" viewBox="0,0,19.7675,22.9466"><g transform="translate(-229.42372,-170.19297)"><g data-paper-data="{&quot;isPaintingLayer&quot;:true}" fill="#878787" fill-rule="nonzero" stroke="none" stroke-width="1" stroke-linecap="butt" stroke-linejoin="miter" stroke-miterlimit="10" stroke-dasharray="" stroke-dashoffset="0" style="mix-blend-mode: normal"><path d="M236.18111,192.10393c0.12945,-0.19418 0.25891,-0.38836 0.25891,-0.45309v-2.6538c-4.01307,0.84145 -4.85452,-1.6829 -4.85452,-1.6829c-0.64727,-1.6829 -1.61817,-2.13599 -1.61817,-2.13599c-1.29454,-0.90618 0.12945,-0.90618 0.12945,-0.90618c1.42399,0.12945 2.20072,1.48872 2.20072,1.48872c1.29454,2.20072 3.3658,1.55345 4.20725,1.22981c0.12945,-0.90618 0.51782,-1.55345 0.90618,-1.94181c-3.23635,-0.38836 -6.60215,-1.61817 -6.60215,-7.11996c0,-1.55345 0.58254,-2.84798 1.48872,-3.88361c-0.12945,-0.38836 -0.64727,-1.81235 0.12945,-3.81889c0,0 1.22981,-0.38836 3.94834,1.48872c1.16508,-0.32363 2.3949,-0.45309 3.62471,-0.45309c1.22981,0 2.45962,0.19418 3.62471,0.45309c2.78326,-1.87708 3.94834,-1.48872 3.94834,-1.48872c0.77672,2.00653 0.32363,3.43053 0.12945,3.81889c0.90618,1.03563 1.48872,2.26544 1.48872,3.88361c0,5.50179 -3.3658,6.7316 -6.60215,7.11996c0.51782,0.45309 0.9709,1.29454 0.9709,2.6538v3.94834c0,0.12945 0.06473,0.25891 0.25891,0.45309c0.19418,0.25891 0.12945,0.712 -0.12945,0.90618c-0.12945,0.06473 -0.25891,0.12945 -0.38836,0.12945h-6.60215c-0.38836,0 -0.64727,-0.25891 -0.64727,-0.64727c0,-0.19418 0.06473,-0.32363 0.12945,-0.38836z"/></g></g></svg>