<svg version="1.1" xmlns="http://www.w3.org/2000/svg" xmlns:xlink="http://www.w3.org/1999/xlink" width="60.93213" height="60.46456" viewBox="0,0,60.93213,60.46456"><g transform="translate(-206.68785,-149.76772)"><g data-paper-data="{&quot;isPaintingLayer&quot;:true}" fill-rule="nonzero" stroke-linecap="butt" stroke-linejoin="miter" stroke-miterlimit="10" stroke-dasharray="" stroke-dashoffset="0" style="mix-blend-mode: normal"><path d="M248.49384,200.72209c-3.35234,1.76272 -7.16988,2.7602 -11.22041,2.7602c-8.09386,0 -15.25748,-3.98284 -19.63787,-10.09557" fill="none" stroke="#838383" stroke-width="13.5"/><path d="M217.67514,193.45107c-2.6718,-3.85567 -4.23728,-8.53614 -4.23728,-13.58226c0,-5.85293 2.10611,-11.21395 5.60182,-15.36653" fill="none" stroke="#717171" stroke-width="13.5"/><path d="M219.00351,164.60531c4.30531,-4.95483 10.65302,-8.08759 17.7324,-8.08759c6.35849,0 12.12671,2.52723 16.355,6.632" fill="none" stroke="#9f9f9f" stroke-width="13.5"/><path d="M260.41097,175.23216c0.31026,1.55234 0.46864,3.15914 0.45902,4.80413c-0.05248,8.98099 -5.09832,16.76489 -12.49014,20.73511" fill="none" stroke="#737373" stroke-width="13.5"/><path d="M236.21843,186.12632v-12.29146h30.34374v12.29146z" fill="#777777" stroke="none" stroke-width="0"/></g></g></svg>