<svg version="1.1" xmlns="http://www.w3.org/2000/svg" xmlns:xlink="http://www.w3.org/1999/xlink" width="31.9957" height="31.75" viewBox="0,0,31.9957,31.75"><g transform="translate(-224.00002,-164.12706)"><g data-paper-data="{&quot;isPaintingLayer&quot;:true}" stroke="none" stroke-width="1" stroke-linecap="butt" stroke-linejoin="miter" stroke-miterlimit="10" stroke-dasharray="" stroke-dashoffset="0" style="mix-blend-mode: normal"><g><g fill="none" fill-rule="nonzero" font-family="sans-serif" font-weight="normal" font-size="12" text-anchor="start"/><g fill="#8c8c8c" fill-rule="evenodd"><path d="M239.87723,191.72426c-6.48,0 -11.73,-5.25 -11.73,-11.72c0,-6.48 5.25,-11.73 11.73,-11.73c6.47,0 11.72,5.25 11.72,11.73c0,6.47 -5.25,11.72 -11.72,11.72zM225.25003,186.17706c-0.83,-1.96 -1.25,-4.04 -1.25,-6.18c0,-2.14 0.42,-4.22 1.25,-6.18c0.8,-1.89 1.94,-3.58 3.4,-5.04c1.45,-1.46 3.15,-2.6 5.04,-3.4c1.96,-0.83 4.04,-1.25 6.18,-1.25c2.14,0 4.22,0.42 6.18,1.25c1.89,0.8 3.59,1.94 5.05,3.4c1.45,1.46 2.6,3.15 3.4,5.04c0.82,1.96 1.25,4.04 1.25,6.18c0,2.14 -0.43,4.22 -1.25,6.18c0,0.01 -0.01,0.01 -0.01,0.02c-0.29,0.69 -1,1.11 -1.76,1.08c-0.18,-0.01 -0.38,-0.01 -0.57,0c-2.45,0.17 -4.43,2.15 -4.6,4.6c-0.02,0.25 -0.02,0.5 0,0.75c0.06,0.76 -0.35,1.47 -1.05,1.79c-0.15,0.07 -0.3,0.14 -0.46,0.21c-1.96,0.83 -4.04,1.25 -6.18,1.25c-2.14,0 -4.22,-0.42 -6.18,-1.25c-1.89,-0.8 -3.59,-1.95 -5.04,-3.4c-1.46,-1.46 -2.6,-3.16 -3.4,-5.05z"/></g></g><path d="M255.99573,192.22101c0,1.94 -1.56,3.51 -3.5,3.51c-1.93,0 -3.5,-1.57 -3.5,-3.51c0,-1.93 1.57,-3.5 3.5,-3.5c1.94,0 3.5,1.57 3.5,3.5z" fill="#adadad" fill-rule="evenodd"/><path d="M240.88108,183.32277c0,-0.67882 0.36062,-1.294 0.94752,-1.64048l3.03349,-1.74656l-3.04056,-1.75362c-0.57983,-0.33941 -0.93338,-0.96167 -0.94045,-1.63342v-1.58392c0,-1.15965 1.26572,-1.88798 2.26981,-1.30815l4.40527,2.55266c0.78489,0.44547 1.26572,1.27986 1.25865,2.17789v3.22441c0,0.90509 -0.47376,1.73241 -1.25158,2.18496l-4.41234,2.54558c-1.00409,0.57983 -2.26981,-0.14849 -2.26981,-1.30815z" fill="#8c8c8c" fill-rule="evenodd"/><path d="M230.93067,181.61158v-3.22441c-0.00707,-0.89802 0.47376,-1.73242 1.25865,-2.17789l4.40528,-2.55265c1.00409,-0.57983 2.26981,0.14849 2.26981,1.30815v1.58392c-0.00707,0.67175 -0.36063,1.29401 -0.94046,1.63342l-3.04055,1.75362l3.03348,1.74656c0.5869,0.34648 0.94753,0.96166 0.94753,1.64048v1.7112c0,1.15965 -1.26573,1.88797 -2.26981,1.30814l-4.41235,-2.54558c-0.77782,-0.45255 -1.25158,-1.27987 -1.25158,-2.18496z" fill="#8c8c8c" fill-rule="evenodd"/></g></g></svg>