<svg version="1.1" xmlns="http://www.w3.org/2000/svg" xmlns:xlink="http://www.w3.org/1999/xlink" width="52.54767" height="52.54921" viewBox="0,0,52.54767,52.54921"><g transform="translate(-213.72616,-153.72539)"><g data-paper-data="{&quot;isPaintingLayer&quot;:true}" fill="#8c8c8c" fill-rule="nonzero" stroke="none" stroke-width="1" stroke-linecap="butt" stroke-linejoin="miter" stroke-miterlimit="10" stroke-dasharray="" stroke-dashoffset="0" style="mix-blend-mode: normal"><path d="M243.76222,153.7254c2.46982,0 4.67425,1.45036 5.59386,3.63115l0.15765,0.41514c0.71992,2.17029 2.9375,3.51029 5.24178,3.22652l0.42039,-0.07094c2.57491,-0.53075 5.21025,0.59906 6.52661,2.80087l3.75727,6.28489c1.22292,2.03486 1.05214,4.61549 -0.42828,6.47144l-0.3153,0.36784c-1.55009,1.6444 -1.6727,4.17239 -0.28902,5.95908l0.29428,0.34682c1.75252,1.88126 2.05205,4.63484 0.74094,6.82614l-3.76252,6.29014c-1.23753,2.07044 -3.64429,3.19499 -6.06944,2.8797l-0.47295,-0.07882c-2.30691,-0.47295 -4.61119,0.71992 -5.50453,2.7851l-0.14188,0.3731c-0.80138,2.41201 -3.12142,4.04104 -5.741,4.04104h-7.53293c-2.47244,0 -4.68214,-1.44511 -5.61226,-3.62327l-0.16553,-0.42827c-0.73043,-2.1624 -2.95064,-3.49452 -5.2523,-3.21076l-0.40726,0.06831c-2.55915,0.52549 -5.18135,-0.59906 -6.48983,-2.78773l-3.77303,-6.3059c-1.22206,-2.03358 -1.05018,-4.61274 0.4309,-6.46618l0.31004,-0.36259c1.56859,-1.68158 1.66844,-4.17766 0.29691,-5.96171l-0.29691,-0.34945c-1.7481,-1.85488 -2.04973,-4.64585 -0.73831,-6.8314l3.77303,-6.3059c1.23228,-2.0573 3.62589,-3.17398 6.0379,-2.85605l0.45193,0.07883c2.30691,0.47819 4.61382,-0.70679 5.51504,-2.76935l0.14977,-0.38886c0.80926,-2.41464 3.14507,-4.04892 5.77516,-4.04892h7.51716zM243.76222,158.98031h-7.51979c-0.29227,-0.00195 -0.60169,0.42302 -0.60169,0.42302c-1.64479,4.86605 -6.81563,7.73524 -11.98385,6.66324c-0.19496,-0.04113 -0.39764,0.01691 -0.54126,0.15502l-0.09196,0.11561l-3.77041,6.30328c-0.10435,0.17452 -0.10935,0.39102 -0.01314,0.57015l0.08934,0.12349c3.53375,3.74486 3.5326,9.59615 -0.00262,13.33962c-0.13771,0.1459 -0.1886,0.35345 -0.134,0.54651l0.0578,0.13663l3.77566,6.30853c0.13327,0.21749 0.38876,0.32788 0.63847,0.27588c4.98692,-1.02734 9.97384,1.61064 11.78942,6.15614l0.18392,0.49397c0.06832,0.21019 0.23647,0.35733 0.43879,0.40988l0.15765,0.01839h7.53556c0.25486,0 0.48082,-0.15765 0.55702,-0.39412c1.56334,-4.69001 6.43203,-7.5487 11.4242,-6.78673l0.536,0.09722c0.21562,0.04872 0.44133,-0.01337 0.60168,-0.16553l0.09722,-0.12349l3.76253,-6.29014c0.13107,-0.21894 0.09989,-0.49845 -0.0762,-0.68314c-3.38463,-3.58128 -3.54956,-9.13011 -0.38361,-12.90609l0.37835,-0.4309c0.14092,-0.14839 0.19376,-0.35977 0.13925,-0.55702l-0.06043,-0.13925l-3.75727,-6.28489c-0.11008,-0.18076 -0.30349,-0.29424 -0.51498,-0.30216l-0.15765,0.01314c-5.19449,1.072 -10.37321,-1.82083 -11.9891,-6.68952c-0.06455,-0.18883 -0.22115,-0.33155 -0.41514,-0.37835zM239.9997,168.17643c6.52998,0 11.82358,5.29359 11.82358,11.82357c0,6.52998 -5.2936,11.82357 -11.82358,11.82357c-6.52998,0 -11.82357,-5.29359 -11.82357,-11.82357c0,-6.52998 5.29359,-11.82357 11.82357,-11.82357zM239.9997,173.07927c-3.82221,0 -6.92073,3.09851 -6.92073,6.92073c0,3.82222 3.09851,6.92073 6.92073,6.92073c3.82222,0 6.92074,-3.09851 6.92074,-6.92073c0,-3.82221 -3.09852,-6.92073 -6.92074,-6.92073z"/></g></g></svg>