<svg version="1.1" xmlns="http://www.w3.org/2000/svg" xmlns:xlink="http://www.w3.org/1999/xlink" width="44.32201" height="42.10164" viewBox="0,0,44.32201,42.10164"><g transform="translate(-217.839,-158.94917)"><g data-paper-data="{&quot;isPaintingLayer&quot;:true}" fill-rule="nonzero" stroke-linecap="butt" stroke-linejoin="miter" stroke-miterlimit="10" stroke-dasharray="" stroke-dashoffset="0" style="mix-blend-mode: normal"><path d="M229.33124,179.8107c0,-5.89699 4.71961,-10.67744 10.54153,-10.67744c5.82192,0 10.54153,4.78045 10.54153,10.67744c0,5.89699 -4.7196,10.67744 -10.54153,10.67744c-5.82192,0 -10.54153,-4.78045 -10.54153,-10.67744z" fill="none" stroke="#696969" stroke-width="4"/><path d="M236.77433,162.049c0,-1.71198 1.38783,-3.09982 3.09982,-3.09982c1.71198,0 3.09982,1.38784 3.09982,3.09982c0,1.71198 -1.38784,3.09982 -3.09982,3.09982c-1.71198,0 -3.09982,-1.38784 -3.09982,-3.09982z" data-paper-data="{&quot;index&quot;:null}" fill="#696969" stroke="none" stroke-width="0"/><path d="M239.875,194.85118c1.71198,0 3.09982,1.38784 3.09982,3.09982c0,1.71198 -1.38784,3.09982 -3.09982,3.09982c-1.71198,0 -3.09982,-1.38784 -3.09982,-3.09982c0,-1.71198 1.38783,-3.09982 3.09982,-3.09982z" data-paper-data="{&quot;index&quot;:null}" fill="#696969" stroke="none" stroke-width="0"/><path d="M222.19875,172.87891c-1.47686,-0.86589 -1.97215,-2.76507 -1.10625,-4.24193c0.86589,-1.47686 2.76508,-1.97215 4.24193,-1.10625c1.47686,0.86589 1.97215,2.76508 1.10625,4.24193c-0.86589,1.47686 -2.76507,1.97214 -4.24193,1.10625z" data-paper-data="{&quot;index&quot;:null}" fill="#696969" stroke="none" stroke-width="0"/><path d="M253.55932,188.60234c0.86589,-1.47686 2.76508,-1.97215 4.24193,-1.10625c1.47686,0.86589 1.97215,2.76508 1.10625,4.24193c-0.86589,1.47686 -2.76507,1.97214 -4.24193,1.10625c-1.47686,-0.86589 -1.97215,-2.76507 -1.10625,-4.24193z" data-paper-data="{&quot;index&quot;:null}" fill="#696969" stroke="none" stroke-width="0"/><path d="M253.65452,171.43752c-0.84631,-1.48817 -0.32599,-3.38064 1.16218,-4.22695c1.48817,-0.84631 3.38064,-0.32599 4.22696,1.16218c0.84631,1.48817 0.32598,3.38064 -1.16218,4.22695c-1.48817,0.84631 -3.38064,0.32599 -4.22695,-1.16218z" data-paper-data="{&quot;index&quot;:null}" fill="#696969" stroke="none" stroke-width="0"/><path d="M225.1833,192.91443c-1.48817,0.84631 -3.38064,0.326 -4.22695,-1.16217c-0.84631,-1.48817 -0.32599,-3.38064 1.16218,-4.22696c1.48817,-0.84631 3.38064,-0.32599 4.22696,1.16218c0.84631,1.48817 0.32598,3.38064 -1.16218,4.22695z" data-paper-data="{&quot;index&quot;:null}" fill="#696969" stroke="none" stroke-width="0"/><path d="M217.839,201.00812v-42.01624h44.32201v42.01624z" fill="none" stroke="none" stroke-width="0"/></g></g></svg>