<svg version="1.1" xmlns="http://www.w3.org/2000/svg" xmlns:xlink="http://www.w3.org/1999/xlink" width="48.62857" height="32.43324" viewBox="0,0,48.62857,32.43324"><defs><linearGradient x1="218.80098" y1="179.66678" x2="239.16975" y2="192.23194" gradientUnits="userSpaceOnUse" id="color-1"><stop offset="0" stop-color="#9f9f9f"/><stop offset="1" stop-color="#c7c7c7"/></linearGradient><linearGradient x1="219.18939" y1="179.66678" x2="238.56247" y2="192.23194" gradientUnits="userSpaceOnUse" id="color-2"><stop offset="0" stop-color="#9f9f9f"/><stop offset="1" stop-color="#c7c7c7"/></linearGradient></defs><g transform="translate(-215.68571,-163.78338)"><g data-paper-data="{&quot;isPaintingLayer&quot;:true}" fill-rule="nonzero" stroke="none" stroke-width="1" stroke-linecap="butt" stroke-linejoin="miter" stroke-miterlimit="10" stroke-dasharray="" stroke-dashoffset="0" style="mix-blend-mode: normal"><path d="M218.68572,195.41636c-0.91,-0.53 -1.67,-1.28 -2.2,-2.2c-0.52,-0.91 -0.8,-1.94 -0.8,-3c0,-1.05 0.28,-2.08 0.8,-3l8.39,-14.52c0.37,-0.64 0.9,-1.17 1.54,-1.54c0.64,-0.37 1.37,-0.56 2.11,-0.56c0.74,0 1.47,0.19 2.11,0.56c0.64,0.37 1.17,0.9 1.55,1.54l7.47335,12.94353l-1.66334,3.24469l4.26103,1.2544l3.50896,6.07738h-24.08c-1.05,0.01 -2.09,-0.27 -3,-0.8zM229.18319,178.80949l-1.50238,-0.039l-0.01922,1.65377c0,0 -2.57326,-0.01543 -3.86675,-0.01543v1.5c0.56012,0 1.43519,0.0111 1.43519,0.0111c0.68989,2.39604 1.39407,2.86193 2.13872,3.65765c-0.98222,1.18112 -3.86895,1.69798 -3.86895,1.69798l0.67911,1.44074c0,0 2.48683,-0.5995 4.26411,-2.21991c0.71421,0.55576 1.9998,1.19277 1.9998,1.19277l1.00842,-1.10064l-1.79382,-1.03687c0,0 1.8404,-2.2393 1.89909,-3.53032c0.64759,0.00726 1.65009,0.00515 1.65009,0.00515v-1.55882l-4.02958,0.00238z" fill="url(#color-1)"/><path d="M226.74667,182.01522l3.43358,0.04813c0,0 -0.28853,0.76452 -0.56969,1.3863c-0.41136,0.90973 -1.16087,1.42878 -1.16087,1.42878c0,0 -0.6161,-0.73662 -0.88586,-1.16221c-0.29556,-0.46627 -0.81716,-1.70101 -0.81716,-1.70101z" fill="url(#color-2)"/><path d="M244.13429,164.35338c0.64,-0.37 1.36,-0.57 2.11,-0.57c0.74,0 1.46,0.2 2.1,0.57c0.65,0.37 1.18,0.9 1.54,1.55l13.85999,24c0.37,0.64 0.57001,1.37 0.57001,2.11c0,0.74 -0.19,1.46 -0.56,2.1c-0.37,0.64 -0.91,1.18 -1.55,1.54c-0.64,0.37 -1.37,0.57 -2.11,0.56h-38.98c-0.81,-0.08 -1.59,-0.32 -2.3,-0.71c-0.71,-0.39 -1.34,-0.91 -1.84,-1.54c0,0 3.63,2.87 7.02,0.17c9.79566,-8.87731 18.6,-28.23 18.6,-28.23c0.36,-0.65 0.9,-1.18 1.54,-1.55zM241.57074,189.65535l1.48764,-3.00093h6.35602l1.52513,2.8076l2.49771,-1.21251l-5.94037,-12.18569l-2.2464,-0.00621l-6.00847,12.02068z" fill="#858585"/><path d="M246.36522,179.36829l2.4108,4.78612h-4.97864z" fill="#858585"/></g></g></svg>